<svg xmlns="http://www.w3.org/2000/svg" viewBox="0 0 438.54 438.54">
  <defs>
    <style>
      .a {
        fill: #123801;
      }
    </style>
  </defs>
  <path class="a" d="M414.41,24.12Q390.29,0,356.31,0H82.22q-34,0-58.1,24.12T0,82.22V356.31q0,34,24.12,58.1t58.1,24.13h64a77.07,77.07,0,0,0,9.42-.43q3.14-.42,6.28-3.71t3.14-9.57q0-.84-.15-19.41T164.73,376l-6.57,1.14a84.46,84.46,0,0,1-15.84,1,122.07,122.07,0,0,1-19.84-2,44.45,44.45,0,0,1-19.13-8.56A36.21,36.21,0,0,1,90.79,350l-2.86-6.57a71.54,71.54,0,0,0-9-14.56q-6.15-8-12.42-10.85l-2-1.42a21.31,21.31,0,0,1-3.71-3.43,15.94,15.94,0,0,1-2.57-4c-.57-1.34-.1-2.43,1.43-3.29S64,304.63,68,304.63l5.71.86q5.7,1.14,14.13,6.85a46.08,46.08,0,0,1,13.85,14.84q6.57,11.71,15.84,17.84t18.7,6.15a80.88,80.88,0,0,0,16.27-1.43,56.26,56.26,0,0,0,12.85-4.29q2.56-19.12,14-29.41A194.81,194.81,0,0,1,150,310.9a116.49,116.49,0,0,1-26.83-11.13,77,77,0,0,1-23-19.13q-9.14-11.43-15-30t-5.85-42.83q0-34.54,22.55-58.81-10.56-26,2-58.24,8.28-2.58,24.55,3.85t23.84,11q7.58,4.56,12.14,7.71a206.22,206.22,0,0,1,109.64,0l10.85-6.85a153,153,0,0,1,26.27-12.56q15.12-5.72,23.12-3.14Q347.17,123,336.61,149q22.56,24.27,22.56,58.81,0,24.27-5.85,43t-15.13,30a79.89,79.89,0,0,1-23.13,19,116.19,116.19,0,0,1-26.84,11.13A194.37,194.37,0,0,1,259,316.05q14.84,12.84,14.84,40.54v68.23a18.45,18.45,0,0,0,1.42,7.86,7.92,7.92,0,0,0,4.58,4.14,25.18,25.18,0,0,0,5.57,1.42,64.15,64.15,0,0,0,7,.29h63.95q34,0,58.1-24.13t24.13-58.1V82.22Q438.53,48.26,414.41,24.12Z"/>
</svg>
