<svg xmlns="http://www.w3.org/2000/svg" viewBox="0 0 74.91 74.91">
  <defs>
    <style>
      .a {
        fill: #123801;
      }

      .b {
        fill: #fff;
      }
    </style>
  </defs>
  <g>
    <rect class="a" width="74.91" height="74.91" rx="21.75"/>
    <g>
      <g>
        <path class="b" d="M16.58,57.28h8.86V29.33H16.58Z"/>
        <path class="b" d="M31.7,28.51h9.45l-.59,3.76h.1c2-2.18,4-3.76,7.36-3.76,4.71,0,11.27,2.56,11.27,10.35V57.28H50.43V41.48c0-2.78-1.75-5.45-4.61-5.45a5.7,5.7,0,0,0-5.26,5.45v15.8H31.7Z"/>
      </g>
      <path class="b" d="M25.77,22.39A4.76,4.76,0,1,1,21,17.64,4.76,4.76,0,0,1,25.77,22.39Z"/>
    </g>
  </g>
</svg>
