<svg xmlns="http://www.w3.org/2000/svg" viewBox="0 0 452.11 457.91">
  <defs>
    <style>
      .a {
        fill: #616e7d;
      }

      .b {
        fill: #82bfab;
      }

      .c {
        fill: #aad4c8;
      }
    </style>
  </defs>
  <g>
    <path class="a" d="M424.46,376.84l-93.92-93.91A179.67,179.67,0,0,0,362.09,182.4C362.83,82.57,282.21.75,182.39,0H181C82,0,.74,80.61,0,179.71A181,181,0,0,0,179.7,362.08h1.37a180.19,180.19,0,0,0,94.87-26.89l94,94-5.34-5.33,53.84-53Zm-241-78.76h-.91A117,117,0,0,1,66.42,180.2c.49-64,53-116.14,117-116.14h.89A117.16,117.16,0,0,1,300.44,182C300,246,247.47,298.08,183.46,298.08Z"/>
    <path class="b" d="M379.86,439.1l12.83,13c3.74,3.8,8.93,5.8,15,5.8h0c9.77,0,20.95-5.26,29.9-14.09,15.09-14.87,19-34.53,9-44.75L429.4,381.69l0,0,.2.19h0l8.28,8.4-53.8,53Z"/>
    <polygon class="c" points="429.36 381.73 424.46 376.84 418.46 370.84 364.62 423.85 369.96 429.18 375.52 434.76 379.59 438.82 379.86 439.1 384.07 443.31 437.87 390.31 429.59 381.91 429.56 381.92 429.36 381.73"/>
  </g>
</svg>
